<svg width="28" height="26" viewBox="0 0 28 26" fill="none" xmlns="http://www.w3.org/2000/svg">
<path d="M1.84813 17.9828C2.04487 20.2844 2.60691 22.4534 3.37011 24.6376C4.10665 24.6376 4.97359 24.6288 5.73762 24.6376C7.1531 24.6541 8.571 24.8267 9.98647 24.8796C12.151 24.9606 14.3037 24.8632 16.4689 24.8864C18.647 24.9097 20.8222 25.0006 23.0008 25.0006C23.3788 25.0006 23.3528 24.7129 23.4094 24.3889C23.6438 23.0472 24.1016 21.7469 24.3254 20.3893C24.6259 18.5673 24.7051 16.7335 24.9314 14.9041C25.1464 13.1663 25.6224 11.4715 26.2068 9.81548C26.4032 9.25885 26.6085 8.71134 26.8762 8.18201C26.9156 8.10406 27.0569 7.97687 26.9748 7.94002C26.7745 7.85007 26.1625 8.02023 25.9601 8.03413C23.477 8.20469 20.9654 8.28203 18.4771 8.23579C14.8825 8.16899 11.279 8.31623 7.68941 8.11479C5.66003 8.00091 3.57977 7.95749 1.60856 7.44259C1.30121 7.3623 0.914689 7.11182 1.01668 7.56358C1.19128 8.33692 1.42912 9.08722 1.53106 9.87598C1.87852 12.5647 1.61761 15.2858 1.84813 17.9828Z" fill="#C74AE3" stroke="black" stroke-width="2" stroke-linecap="round" stroke-linejoin="round"/>
<path d="M8.1897 11.6903C8.1897 9.57956 8.1897 7.46883 8.1897 5.3581C8.1897 4.11623 8.61837 2.81528 8.37994 1.58702C8.34077 1.38522 8.17737 0.966054 8.54201 1.0022C9.66553 1.11356 10.7821 1.47232 11.903 1.63407C13.8941 1.92139 15.9948 2.26043 18.005 2.36005C18.6736 2.39319 19.3384 2.38046 20.0061 2.44072C20.277 2.46516 21.7731 2.42375 21.9297 2.66927C22.0324 2.83015 21.2788 3.85243 21.204 4.01368C20.9035 4.66137 20.7123 5.35532 20.4923 6.03031C20.1226 7.16461 19.7249 8.27873 19.4777 9.44512C19.4088 9.7698 19.4068 10.9376 19.0972 11.0853" stroke="black" stroke-width="2" stroke-linecap="round"/>
<path d="M7.17505 20.2809C11.0352 20.0448 15.0042 19.7969 18.8435 19.7969" stroke="black" stroke-width="2" stroke-linecap="round"/>
</svg>
