<svg width="580" height="374" viewBox="0 0 580 374" fill="none" xmlns="http://www.w3.org/2000/svg">
<path d="M579.43 90.0547H534.592V94.9791H561.46V104.31H534.592V129.968H513.944V69.3203H579.43V90.0547Z" fill="white"/>
<path d="M469.016 106.642H509.707V129.968H445.69V69.3203H469.016V106.642Z" fill="white"/>
<path d="M420.174 67.5928C430.368 67.5928 438.748 75.8865 438.748 86.1673V112.604C438.748 122.798 430.368 131.178 420.174 131.178H389.936C385.012 131.178 380.26 129.191 376.718 125.735C373.262 122.193 371.275 117.528 371.361 112.604V86.1673C371.275 81.2429 373.262 76.4913 376.718 73.0356C380.26 69.5798 384.925 67.5928 389.936 67.5928H420.174ZM414.472 105.865V92.906C414.472 89.5367 411.707 86.7721 408.338 86.7721H401.685C398.316 86.7721 395.552 89.5367 395.552 92.906V105.865C395.552 109.234 398.316 111.999 401.685 111.999H408.338C411.707 111.999 414.472 109.234 414.472 105.865Z" fill="white"/>
<path d="M348.739 69.3203H370.078L348.739 129.796H327.832L323.34 117.269L318.934 129.796H298.026L276.687 69.3203H298.026L308.48 99.8171L315.651 69.3203H331.115L338.286 99.8171L348.739 69.3203Z" fill="white"/>
<path d="M258.395 69.4072C263.146 69.4072 267.812 71.3079 271.181 74.6772C274.55 78.0466 276.451 82.6254 276.451 87.4634V111.826C276.451 116.578 274.55 121.157 271.181 124.613C267.812 127.982 263.146 129.882 258.395 129.882H211.483V69.4072H258.395ZM253.125 107.247V91.9559C253.125 90.4008 251.829 89.1913 250.36 89.1913H230.662V110.012H250.36C251.915 110.012 253.125 108.803 253.125 107.247Z" fill="white"/>
<path d="M180.305 69.3203H204.495V129.882H180.737L163.976 100.249V129.882H139.095V69.3203H165.704L180.305 91.3506V69.3203Z" fill="white"/>
<path d="M113.657 70.0986L136.119 129.969H111.583L103.808 109.494H96.8963L89.2073 129.969H64.6716L87.1338 70.0986H113.657ZM97.2418 99.6451H103.549L100.352 91.265L97.2418 99.6451Z" fill="white"/>
<path d="M23.4666 106.642H64.1578V129.968H0.140442L0.140442 69.3203H23.4666V106.642Z" fill="white"/>
<path d="M506.687 37.4371H547.378V60.7633H483.361V0.115234L506.687 0.115234V37.4371Z" fill="white"/>
<path d="M457.922 0.893555L480.384 60.7641H455.849L448.073 40.2889H441.162L433.473 60.7641H408.937L431.399 0.893555L457.922 0.893555ZM441.507 30.44H447.814L444.618 22.0599L441.507 30.44Z" fill="white"/>
<path d="M406.939 20.8496H362.101V25.774H388.97V35.1045H362.101V40.0289H406.939V60.7633H341.453V0.115234L406.939 0.115234V20.8496Z" fill="white"/>
<path d="M324.344 31.7357C336.957 35.2778 336.18 60.591 336.18 60.591H310.867V40.2022C310.867 36.2281 305.424 36.6601 305.424 36.6601H294.625V60.591H273.199V0.202148L312.335 0.202148C324.171 0.202148 335.575 4.86738 335.575 16.2713C335.575 27.6752 324.344 31.7357 324.344 31.7357ZM311.212 24.9106C312.076 24.1331 312.335 22.8372 311.903 21.7141C311.385 20.6774 310.348 19.9862 309.225 19.9862H294.625V25.7745H309.225C309.916 25.7745 310.694 25.429 311.212 24.9106Z" fill="white"/>
<path d="M229.934 20.8496H185.096V25.774H211.965V35.1045H185.096V40.0289H229.934V60.7633H164.448V0.115234L229.934 0.115234V20.8496Z" fill="white"/>
<path d="M133.943 0.115234L157.442 0.115234V60.6769H133.943V39.0786H116.319V60.6769H92.8196V0.115234L116.319 0.115234V19.2945H133.943V0.115234Z" fill="white"/>
<path d="M28.4601 0.115234L88.8489 0.115234V20.8496H68.9785V60.5905H48.3305V20.8496H28.4601V0.115234Z" fill="white"/>
<path d="M424.271 299.174C438.532 299.174 452.272 304.795 452.272 318.535C452.272 345.182 415.944 343.101 415.944 343.101H402.932V371.934H377.117V299.174H424.271ZM422.918 328.944C423.959 328.007 424.271 326.446 423.751 325.197C423.126 323.844 421.877 323.011 420.524 323.011H402.932V329.985H420.524C421.356 329.985 422.293 329.673 422.918 328.944Z" fill="white"/>
<path d="M346.374 296.988C358.657 296.988 368.754 306.981 368.754 319.368V351.22C368.754 363.503 358.657 373.6 346.374 373.6H309.942C304.008 373.6 298.283 371.206 294.016 367.042C289.852 362.774 287.458 357.153 287.562 351.22V319.368C287.458 313.435 289.852 307.71 294.016 303.546C298.283 299.382 303.904 296.988 309.942 296.988H346.374ZM339.504 343.101V327.487C339.504 323.428 336.173 320.097 332.113 320.097H324.098C320.039 320.097 316.708 323.428 316.708 327.487V343.101C316.708 347.161 320.039 350.492 324.098 350.492H332.113C336.173 350.492 339.504 347.161 339.504 343.101Z" fill="white"/>
<path d="M250.807 299.069H279.12V372.038H250.807V346.015H229.572V372.038H201.259V299.069H229.572V322.178H250.807V299.069Z" fill="white"/>
<path d="M143.447 328.528C143.447 328.528 152.503 329.152 163.745 329.881C168.845 330.297 174.466 330.713 179.879 331.13C187.165 331.754 192.89 337.896 192.89 345.286V351.22C192.89 363.502 182.897 373.495 170.511 373.495H132.413C120.13 373.495 111.907 363.502 111.907 351.22V344.454H141.989C141.989 344.454 141.573 347.16 146.465 347.16H160.205C163.328 347.16 164.161 342.58 161.246 342.06C161.246 342.06 151.982 341.331 140.948 340.29C135.536 339.769 129.706 339.249 124.502 338.624C117.32 337.792 111.803 331.754 111.907 324.572V319.472C111.803 313.538 114.197 307.813 118.36 303.65C122.628 299.486 128.249 297.092 134.182 297.092H166.867C179.671 297.82 192.89 299.59 192.89 326.133H162.808C162.808 326.133 163.12 323.531 158.228 323.531H144.488C141.365 323.531 140.532 328.007 143.447 328.528Z" fill="white"/>
</svg>
