<svg width="20" height="22" viewBox="0 0 20 22" fill="none" xmlns="http://www.w3.org/2000/svg">
<g clip-path="url(#clip0_183_170)">
<path d="M15.3645 3.44667C14.5292 2.49276 14.0688 1.26793 14.0689 0H10.2923V15.1556C10.2637 15.9759 9.91767 16.7531 9.32708 17.3232C8.73648 17.8932 7.94754 18.2116 7.1267 18.2111C5.39115 18.2111 3.94892 16.7933 3.94892 15.0333C3.94892 12.9311 5.97781 11.3544 8.06781 12.0022V8.14C3.85115 7.57778 0.160034 10.8533 0.160034 15.0333C0.160034 19.1033 3.53337 22 7.11448 22C10.9523 22 14.0689 18.8833 14.0689 15.0333V7.34556C15.6004 8.44537 17.439 9.03546 19.3245 9.03222V5.25556C19.3245 5.25556 17.0267 5.36556 15.3645 3.44667Z" fill="white"/>
</g>
<defs>
<clipPath id="clip0_183_170">
<rect width="20" height="22" fill="white"/>
</clipPath>
</defs>
</svg>
