<svg width="112" height="20" viewBox="0 0 112 20" fill="none" xmlns="http://www.w3.org/2000/svg">
<path d="M98.4071 10.4716C97.8066 10.072 97.1361 9.78215 96.5015 9.43173C96.0799 9.226 95.6774 8.98322 95.2987 8.70626C94.6945 8.20809 94.8157 7.22691 95.4541 6.79883C96.3595 6.1908 97.8653 6.53554 98.0207 7.77243C98.0216 7.78533 98.0274 7.79739 98.0369 7.80618C98.0464 7.81496 98.0589 7.81982 98.0718 7.81979H99.4394C99.4471 7.81983 99.4548 7.81824 99.4618 7.81514C99.4689 7.81203 99.4752 7.80747 99.4804 7.80175C99.4856 7.79603 99.4895 7.78928 99.4919 7.78194C99.4943 7.77461 99.4951 7.76685 99.4943 7.75917C99.4205 6.9049 99.0966 6.19459 98.4942 5.73999C97.937 5.31074 97.2542 5.07648 96.5508 5.07324C92.9272 5.07324 92.5977 8.90894 94.5468 10.1193C94.7741 10.2595 96.6853 11.2198 97.3615 11.6347C98.0377 12.0495 98.2499 12.8185 97.9563 13.4265C97.6892 13.9834 96.9959 14.3566 96.3027 14.3206C95.545 14.2808 94.9578 13.8679 94.7513 13.2258C94.7179 13.0835 94.7001 12.9381 94.6983 12.792C94.6973 12.7781 94.6911 12.7651 94.6809 12.7556C94.6707 12.7461 94.6573 12.7408 94.6434 12.7408H93.1545C93.1398 12.7413 93.1258 12.7475 93.1156 12.7581C93.1053 12.7687 93.0996 12.7829 93.0996 12.7977C93.0996 13.8736 93.3686 14.4683 94.0922 15.012C94.7263 15.4931 95.5029 15.7491 96.2989 15.7393C98.3237 15.7393 99.3807 14.5914 99.589 13.4019C99.7974 12.2124 99.4545 11.1649 98.4071 10.4716Z" fill="#161616"/>
<path d="M33.915 5.25687H32.5417C32.5302 5.25647 32.5188 5.26 32.5095 5.26688C32.5002 5.27376 32.4936 5.28359 32.4906 5.29475L31.2669 9.31228C31.2639 9.32349 31.2572 9.33337 31.2479 9.34041C31.2387 9.34746 31.2274 9.35127 31.2158 9.35127C31.2042 9.35127 31.1929 9.34746 31.1836 9.34041C31.1744 9.33337 31.1677 9.32349 31.1647 9.31228L29.9429 5.29475C29.9393 5.2836 29.9322 5.27391 29.9226 5.26709C29.9131 5.26027 29.9016 5.25669 29.8899 5.25687H27.6301C27.6159 5.25686 27.6022 5.26238 27.5919 5.27228C27.5817 5.28217 27.5757 5.29566 27.5752 5.3099V15.5744C27.5752 15.589 27.581 15.6029 27.5913 15.6133C27.6016 15.6236 27.6156 15.6293 27.6301 15.6293H29.1189C29.1261 15.6293 29.1331 15.6279 29.1397 15.6251C29.1463 15.6223 29.1522 15.6183 29.1571 15.6131C29.1621 15.608 29.166 15.6019 29.1685 15.5953C29.1711 15.5886 29.1722 15.5815 29.172 15.5744V7.77611C29.173 7.76369 29.1782 7.75198 29.1867 7.74291C29.1953 7.73383 29.2066 7.72793 29.219 7.72617C29.2313 7.7244 29.2439 7.72688 29.2546 7.73321C29.2653 7.73953 29.2736 7.74932 29.2781 7.76096L30.5093 11.805L30.5945 12.0872C30.5981 12.0984 30.6053 12.1081 30.6148 12.1149C30.6243 12.1217 30.6358 12.1253 30.6475 12.1251H31.784C31.7958 12.1253 31.8072 12.1217 31.8168 12.1149C31.8263 12.1081 31.8334 12.0984 31.8371 12.0872L31.9223 11.805L33.1535 7.76096C33.158 7.74932 33.1662 7.73953 33.177 7.73321C33.1877 7.72688 33.2003 7.7244 33.2126 7.72617C33.225 7.72793 33.2363 7.73383 33.2449 7.74291C33.2534 7.75198 33.2586 7.76369 33.2596 7.77611V15.5744C33.2593 15.5815 33.2605 15.5886 33.2631 15.5953C33.2656 15.6019 33.2695 15.608 33.2744 15.6131C33.2794 15.6183 33.2853 15.6223 33.2919 15.6251C33.2985 15.6279 33.3055 15.6293 33.3126 15.6293H34.8015C34.816 15.6293 34.83 15.6236 34.8403 15.6133C34.8506 15.6029 34.8564 15.589 34.8564 15.5744V5.3099C34.8559 5.29566 34.8499 5.28217 34.8396 5.27228C34.8294 5.26238 34.8157 5.25686 34.8015 5.25687H33.915Z" fill="#161616"/>
<path d="M75.6599 5.25684C75.6485 5.25706 75.6375 5.26083 75.6283 5.26762C75.6192 5.27441 75.6123 5.28388 75.6088 5.29472L74.387 9.31226C74.3834 9.32318 74.3764 9.33267 74.367 9.3394C74.3577 9.34613 74.3465 9.34975 74.335 9.34975C74.3234 9.34975 74.3122 9.34613 74.3029 9.3394C74.2935 9.33267 74.2865 9.32318 74.2829 9.31226L73.0611 5.29472C73.0579 5.28373 73.0511 5.27408 73.0419 5.26725C73.0327 5.26042 73.0215 5.25677 73.01 5.25684H70.7502C70.736 5.25683 70.7223 5.26235 70.7121 5.27225C70.7018 5.28214 70.6958 5.29564 70.6953 5.30987V15.5744C70.6953 15.589 70.7011 15.6029 70.7114 15.6132C70.7217 15.6235 70.7357 15.6293 70.7502 15.6293H72.2391C72.2533 15.6288 72.2668 15.6228 72.2767 15.6126C72.2866 15.6023 72.2921 15.5886 72.2921 15.5744V7.77608C72.2931 7.76366 72.2983 7.75195 72.3068 7.74288C72.3154 7.7338 72.3267 7.7279 72.3391 7.72614C72.3514 7.72438 72.364 7.72686 72.3747 7.73318C72.3855 7.7395 72.3937 7.74929 72.3982 7.76093L73.6294 11.805L73.7146 12.0872C73.7182 12.0981 73.725 12.1075 73.7341 12.1143C73.7433 12.1211 73.7544 12.1249 73.7658 12.1251H74.9023C74.9138 12.1255 74.9252 12.122 74.9344 12.1151C74.9437 12.1082 74.9504 12.0984 74.9534 12.0872L75.0405 11.805L76.2699 7.76093C76.2743 7.74929 76.2826 7.7395 76.2933 7.73318C76.304 7.72686 76.3166 7.72438 76.3289 7.72614C76.3413 7.7279 76.3527 7.7338 76.3612 7.74288C76.3697 7.75195 76.3749 7.76366 76.3759 7.77608V15.5744C76.3759 15.589 76.3817 15.6029 76.392 15.6132C76.4023 15.6235 76.4163 15.6293 76.4309 15.6293H77.9197C77.9339 15.6288 77.9474 15.6228 77.9573 15.6126C77.9672 15.6023 77.9727 15.5886 77.9727 15.5744V5.30987C77.9722 5.29596 77.9665 5.28274 77.9567 5.2729C77.9468 5.26305 77.9336 5.25731 77.9197 5.25684H75.6599Z" fill="#161616"/>
<path d="M56.5009 5.25684H49.4924C49.4782 5.25683 49.4645 5.26235 49.4542 5.27225C49.444 5.28214 49.438 5.29563 49.4375 5.30987V6.59412C49.438 6.60836 49.444 6.62185 49.4542 6.63175C49.4645 6.64164 49.4782 6.64716 49.4924 6.64716H52.2068V15.5744C52.2068 15.5816 52.2082 15.5887 52.211 15.5954C52.2137 15.6021 52.2178 15.6081 52.2229 15.6132C52.228 15.6183 52.234 15.6224 52.2407 15.6251C52.2474 15.6279 52.2545 15.6293 52.2617 15.6293H53.7505C53.7648 15.6288 53.7783 15.6228 53.7881 15.6126C53.798 15.6023 53.8036 15.5886 53.8036 15.5744V6.64716H56.5009C56.5151 6.64716 56.5288 6.64164 56.539 6.63175C56.5493 6.62185 56.5553 6.60836 56.5558 6.59412V5.30987C56.5553 5.29563 56.5493 5.28214 56.539 5.27225C56.5288 5.26235 56.5151 5.25683 56.5009 5.25684Z" fill="#161616"/>
<path d="M65.2688 15.6302H66.6213C66.6296 15.6303 66.6377 15.6284 66.6452 15.6247C66.6526 15.621 66.659 15.6156 66.664 15.609C66.669 15.6024 66.6723 15.5947 66.6738 15.5865C66.6753 15.5783 66.6748 15.57 66.6724 15.562L63.888 5.26341C63.8847 5.25191 63.8777 5.2418 63.8681 5.23462C63.8586 5.22744 63.8469 5.22358 63.835 5.22363H61.8915C61.8796 5.22358 61.8679 5.22744 61.8583 5.23462C61.8488 5.2418 61.8418 5.25191 61.8385 5.26341L59.0446 15.562C59.0426 15.5701 59.0424 15.5785 59.0442 15.5866C59.0459 15.5948 59.0494 15.6024 59.0545 15.609C59.0596 15.6156 59.0662 15.6209 59.0736 15.6246C59.0811 15.6282 59.0893 15.6302 59.0976 15.6302H60.4501C60.462 15.6297 60.4734 15.6254 60.4826 15.6179C60.4918 15.6104 60.4983 15.6001 60.5012 15.5885L61.3138 12.5957C61.3167 12.5844 61.3234 12.5743 61.3326 12.5671C61.3419 12.5599 61.3532 12.556 61.365 12.556H64.354C64.3656 12.5563 64.3768 12.5604 64.386 12.5675C64.3952 12.5747 64.4019 12.5845 64.4051 12.5957L65.2139 15.5866C65.2162 15.5993 65.223 15.6108 65.2331 15.6188C65.2433 15.6268 65.256 15.6309 65.2688 15.6302ZM61.7192 11.0975L62.8064 7.0875C62.8101 7.07658 62.8171 7.06708 62.8264 7.06035C62.8358 7.05362 62.847 7.05 62.8585 7.05C62.87 7.05 62.8812 7.05362 62.8906 7.06035C62.8999 7.06708 62.9069 7.07658 62.9106 7.0875L63.9978 11.0975C64.0002 11.1054 64.0007 11.1138 63.9992 11.1219C63.9978 11.1301 63.9944 11.1378 63.9895 11.1444C63.9845 11.1511 63.978 11.1564 63.9706 11.1601C63.9632 11.1638 63.955 11.1657 63.9467 11.1656H61.7722C61.7639 11.1656 61.7557 11.1637 61.7482 11.16C61.7407 11.1563 61.7342 11.151 61.7291 11.1444C61.724 11.1379 61.7205 11.1302 61.7187 11.1221C61.717 11.1139 61.7172 11.1055 61.7192 11.0975Z" fill="#161616"/>
<path d="M88.3226 15.6302H89.6731C89.6814 15.6302 89.6896 15.6283 89.6971 15.6246C89.7045 15.6209 89.7111 15.6156 89.7162 15.609C89.7213 15.6025 89.7248 15.5948 89.7266 15.5867C89.7283 15.5785 89.7281 15.5701 89.7261 15.562L86.9322 5.26344C86.9292 5.25177 86.9223 5.24147 86.9127 5.23424C86.9031 5.22701 86.8912 5.22328 86.8792 5.22366H84.9434C84.9314 5.22361 84.9197 5.22746 84.9102 5.23464C84.9006 5.24182 84.8936 5.25193 84.8903 5.26344L82.0983 15.562C82.0963 15.57 82.0961 15.5782 82.0978 15.5862C82.0994 15.5942 82.1028 15.6018 82.1077 15.6083C82.1126 15.6148 82.1189 15.6202 82.1261 15.624C82.1333 15.6278 82.1413 15.6299 82.1495 15.6302H83.5019C83.5139 15.6301 83.5254 15.6259 83.5347 15.6183C83.544 15.6107 83.5505 15.6003 83.553 15.5886L84.3656 12.5958C84.3689 12.5843 84.3759 12.5742 84.3855 12.567C84.3951 12.5598 84.4067 12.5559 84.4187 12.556H87.4058C87.4175 12.556 87.4289 12.56 87.4381 12.5672C87.4474 12.5744 87.454 12.5844 87.4569 12.5958L88.2695 15.5886C88.2725 15.6004 88.2793 15.6109 88.2889 15.6185C88.2985 15.626 88.3103 15.6302 88.3226 15.6302ZM84.7729 11.0975L85.8601 7.08752C85.8638 7.0766 85.8708 7.0671 85.8801 7.06038C85.8895 7.05365 85.9007 7.05003 85.9122 7.05003C85.9237 7.05003 85.935 7.05365 85.9443 7.06038C85.9537 7.0671 85.9607 7.0766 85.9643 7.08752L87.0516 11.0975C87.0536 11.1056 87.0537 11.114 87.052 11.1221C87.0503 11.1303 87.0467 11.1379 87.0416 11.1445C87.0365 11.151 87.03 11.1563 87.0225 11.16C87.0151 11.1637 87.0069 11.1656 86.9985 11.1657H84.824C84.8157 11.1657 84.8076 11.1638 84.8001 11.1601C84.7927 11.1565 84.7862 11.1511 84.7813 11.1445C84.7763 11.1378 84.773 11.1301 84.7715 11.122C84.77 11.1138 84.7705 11.1054 84.7729 11.0975Z" fill="#161616"/>
<path d="M40.8664 14.1121V10.9261C40.8661 10.9191 40.8673 10.912 40.8698 10.9055C40.8724 10.8989 40.8763 10.893 40.8813 10.888C40.8863 10.883 40.8922 10.8791 40.8988 10.8765C40.9053 10.874 40.9124 10.8728 40.9194 10.8731H44.8744C44.8887 10.8726 44.9021 10.8666 44.912 10.8563C44.9219 10.8461 44.9275 10.8324 44.9275 10.8181V9.53577C44.9275 9.52152 44.9219 9.50783 44.912 9.49758C44.9021 9.48733 44.8887 9.48133 44.8744 9.48083H40.9194C40.9053 9.48083 40.8918 9.47525 40.8819 9.4653C40.8719 9.45536 40.8664 9.44186 40.8664 9.4278V6.70209C40.8661 6.69497 40.8673 6.68786 40.8698 6.68121C40.8724 6.67455 40.8762 6.66848 40.8812 6.66335C40.8862 6.65823 40.8921 6.65415 40.8986 6.65136C40.9052 6.64858 40.9123 6.64715 40.9194 6.64716H45.4199C45.4342 6.64716 45.4479 6.64164 45.4581 6.63175C45.4684 6.62185 45.4744 6.60836 45.4749 6.59412V5.30987C45.4744 5.29563 45.4684 5.28214 45.4581 5.27225C45.4479 5.26235 45.4342 5.25683 45.4199 5.25684H39.3226C39.3085 5.25684 39.295 5.26242 39.2851 5.27237C39.2752 5.28231 39.2696 5.29581 39.2696 5.30987V15.5744C39.2693 15.5815 39.2705 15.5886 39.273 15.5953C39.2756 15.6019 39.2795 15.608 39.2844 15.6131C39.2894 15.6182 39.2953 15.6223 39.3019 15.6251C39.3084 15.6279 39.3155 15.6293 39.3226 15.6293H45.6131C45.6277 15.6293 45.6417 15.6235 45.652 15.6132C45.6623 15.6029 45.6681 15.589 45.6681 15.5744V14.2201C45.6681 14.2055 45.6623 14.1915 45.652 14.1812C45.6417 14.1709 45.6277 14.1651 45.6131 14.1651H40.9194C40.9124 14.1654 40.9053 14.1642 40.8988 14.1616C40.8922 14.1591 40.8863 14.1552 40.8813 14.1502C40.8763 14.1452 40.8724 14.1392 40.8698 14.1327C40.8673 14.1261 40.8661 14.1191 40.8664 14.1121Z" fill="#161616"/>
<path d="M111.985 15.5365L106.844 10.2234C106.839 10.2184 106.835 10.2125 106.833 10.206C106.83 10.1995 106.828 10.1925 106.828 10.1855C106.828 10.1784 106.83 10.1714 106.833 10.1649C106.835 10.1584 106.839 10.1525 106.844 10.1476L111.468 5.35723C111.476 5.34981 111.481 5.34029 111.483 5.3299C111.485 5.31951 111.484 5.30873 111.48 5.29894C111.476 5.28915 111.469 5.28082 111.46 5.275C111.451 5.26918 111.441 5.26615 111.43 5.2663H109.538C109.53 5.2663 109.523 5.26782 109.516 5.27075C109.509 5.27368 109.503 5.27796 109.498 5.28335L105.573 9.35771C105.566 9.36566 105.556 9.37116 105.545 9.3735C105.535 9.37584 105.523 9.37491 105.513 9.37084C105.503 9.36676 105.494 9.35972 105.488 9.35063C105.482 9.34154 105.479 9.33081 105.479 9.31983V5.30987C105.479 5.29581 105.473 5.28231 105.463 5.27237C105.453 5.26242 105.44 5.25684 105.426 5.25684H103.937C103.923 5.25683 103.909 5.26235 103.899 5.27225C103.888 5.28214 103.882 5.29563 103.882 5.30987V15.5744C103.882 15.589 103.888 15.6029 103.898 15.6132C103.908 15.6235 103.922 15.6293 103.937 15.6293H105.426C105.433 15.6293 105.44 15.6279 105.446 15.6251C105.453 15.6223 105.459 15.6182 105.464 15.6131C105.469 15.608 105.473 15.6019 105.475 15.5953C105.478 15.5886 105.479 15.5815 105.479 15.5744V11.0568C105.479 11.0462 105.482 11.0359 105.488 11.0272C105.495 11.0186 105.503 11.0118 105.513 11.0078C105.523 11.0038 105.533 11.0027 105.544 11.0047C105.554 11.0067 105.564 11.0116 105.571 11.0189L110.017 15.6123C110.027 15.6227 110.041 15.6288 110.055 15.6293H111.949C111.96 15.6286 111.97 15.625 111.978 15.6188C111.986 15.6126 111.993 15.6041 111.997 15.5944C112 15.5846 112.001 15.574 111.999 15.5637C111.997 15.5535 111.992 15.544 111.985 15.5365Z" fill="#161616"/>
<path d="M20.0623 0.994141L12.2266 6.80739L13.6818 3.37771L20.0623 0.994141Z" fill="#E17726" stroke="#E17726" stroke-width="0.712817" stroke-linecap="round" stroke-linejoin="round"/>
<path d="M1.99121 0.994141L9.75564 6.8624L8.37168 3.37771L1.99121 0.994141Z" fill="#E27625" stroke="#E27625" stroke-width="0.712817" stroke-linecap="round" stroke-linejoin="round"/>
<path d="M17.2456 14.4707L15.1611 17.6648L19.6214 18.8915L20.8961 14.5412L17.2456 14.4707Z" fill="#E27625" stroke="#E27625" stroke-width="0.712817" stroke-linecap="round" stroke-linejoin="round"/>
<path d="M1.16504 14.5412L2.43199 18.8915L6.89227 17.6648L4.81556 14.4707L1.16504 14.5412Z" fill="#E27625" stroke="#E27625" stroke-width="0.712817" stroke-linecap="round" stroke-linejoin="round"/>
<path d="M6.64918 9.07233L5.40625 10.953L9.82779 11.1498L9.67823 6.38965L6.64918 9.07233Z" fill="#E27625" stroke="#E27625" stroke-width="0.712817" stroke-linecap="round" stroke-linejoin="round"/>
<path d="M15.4052 9.07363L12.3288 6.33594L12.2266 11.1511L16.6481 10.9543L15.4052 9.07363Z" fill="#E27625" stroke="#E27625" stroke-width="0.712817" stroke-linecap="round" stroke-linejoin="round"/>
<path d="M6.8916 17.6651L9.55878 16.3663L7.26123 14.5732L6.8916 17.6651Z" fill="#E27625" stroke="#E27625" stroke-width="0.712817" stroke-linecap="round" stroke-linejoin="round"/>
<path d="M12.4922 16.3663L15.1594 17.6651L14.7897 14.5732L12.4922 16.3663Z" fill="#E27625" stroke="#E27625" stroke-width="0.712817" stroke-linecap="round" stroke-linejoin="round"/>
<path d="M15.1594 17.6649L12.4922 16.3662L12.7045 18.1051L12.6813 18.8366L15.1594 17.6649Z" fill="#D5BFB2" stroke="#D5BFB2" stroke-width="0.712817" stroke-linecap="round" stroke-linejoin="round"/>
<path d="M6.8916 17.6649L9.36971 18.8366L9.35421 18.1051L9.55878 16.3662L6.8916 17.6649Z" fill="#D5BFB2" stroke="#D5BFB2" stroke-width="0.712817" stroke-linecap="round" stroke-linejoin="round"/>
<path d="M9.41774 13.4231L7.19922 12.7707L8.7645 12.0547L9.41774 13.4231Z" fill="#233447" stroke="#233447" stroke-width="0.712817" stroke-linecap="round" stroke-linejoin="round"/>
<path d="M12.6348 13.4231L13.288 12.0547L14.861 12.7707L12.6348 13.4231Z" fill="#233447" stroke="#233447" stroke-width="0.712817" stroke-linecap="round" stroke-linejoin="round"/>
<path d="M6.89214 17.6648L7.27726 14.4707L4.81543 14.5412L6.89214 17.6648Z" fill="#CC6228" stroke="#CC6228" stroke-width="0.712817" stroke-linecap="round" stroke-linejoin="round"/>
<path d="M14.7754 14.4707L15.1605 17.6648L17.245 14.5412L14.7754 14.4707Z" fill="#CC6228" stroke="#CC6228" stroke-width="0.712817" stroke-linecap="round" stroke-linejoin="round"/>
<path d="M16.6481 10.9551L12.2266 11.1519L12.6357 13.4247L13.2889 12.0562L14.862 12.7722L16.6481 10.9551Z" fill="#CC6228" stroke="#CC6228" stroke-width="0.712817" stroke-linecap="round" stroke-linejoin="round"/>
<path d="M7.20013 12.7722L8.76541 12.0562L9.41865 13.4247L9.82779 11.1519L5.40625 10.9551L7.20013 12.7722Z" fill="#CC6228" stroke="#CC6228" stroke-width="0.712817" stroke-linecap="round" stroke-linejoin="round"/>
<path d="M5.40625 10.9551L7.26289 14.5738L7.20013 12.7722L5.40625 10.9551Z" fill="#E27525" stroke="#E27525" stroke-width="0.712817" stroke-linecap="round" stroke-linejoin="round"/>
<path d="M14.8625 12.7722L14.792 14.5738L16.6486 10.9551L14.8625 12.7722Z" fill="#E27525" stroke="#E27525" stroke-width="0.712817" stroke-linecap="round" stroke-linejoin="round"/>
<path d="M9.82711 11.1504L9.41797 13.4232L9.93715 16.1058L10.0472 12.5739L9.82711 11.1504Z" fill="#E27525" stroke="#E27525" stroke-width="0.712817" stroke-linecap="round" stroke-linejoin="round"/>
<path d="M12.226 11.1504L12.0137 12.5661L12.116 16.1058L12.6351 13.4232L12.226 11.1504Z" fill="#E27525" stroke="#E27525" stroke-width="0.712817" stroke-linecap="round" stroke-linejoin="round"/>
<path d="M12.6364 13.4239L12.1172 16.1066L12.4946 16.3662L14.7921 14.5731L14.8626 12.7715L12.6364 13.4239Z" fill="#F5841F" stroke="#F5841F" stroke-width="0.712817" stroke-linecap="round" stroke-linejoin="round"/>
<path d="M7.19922 12.7715L7.26198 14.5731L9.55954 16.3662L9.93691 16.1066L9.41774 13.4239L7.19922 12.7715Z" fill="#F5841F" stroke="#F5841F" stroke-width="0.712817" stroke-linecap="round" stroke-linejoin="round"/>
<path d="M12.6816 18.8357L12.7048 18.1042L12.5088 17.9314H9.54251L9.35421 18.1042L9.36971 18.8357L6.8916 17.6641L7.75716 18.3715L9.51926 19.5912H12.532L14.2942 18.3715L15.1597 17.6641L12.6816 18.8357Z" fill="#C0AC9D" stroke="#C0AC9D" stroke-width="0.712817" stroke-linecap="round" stroke-linejoin="round"/>
<path d="M12.4928 16.366L12.1154 16.1064H9.93644L9.55907 16.366L9.35449 18.1049L9.54279 17.9321H12.5091L12.7051 18.1049L12.4928 16.366Z" fill="#161616" stroke="#161616" stroke-width="0.712817" stroke-linecap="round" stroke-linejoin="round"/>
<path d="M20.3907 7.18554L21.0517 3.97593L20.0606 0.994141L12.4922 6.61134L15.4035 9.07317L19.5174 10.2774L20.4224 9.21498L20.0288 8.93214L20.658 8.35717L20.1783 7.9798L20.8076 7.50014L20.3907 7.18554Z" fill="#763E1A" stroke="#763E1A" stroke-width="0.712817" stroke-linecap="round" stroke-linejoin="round"/>
<path d="M1 3.97593L1.66873 7.18554L1.24409 7.50014L1.8733 7.9798L1.39365 8.35717L2.02286 8.93214L1.62921 9.21498L2.53429 10.2774L6.64819 9.07317L9.55947 6.61134L1.99109 0.994141L1 3.97593Z" fill="#763E1A" stroke="#763E1A" stroke-width="0.712817" stroke-linecap="round" stroke-linejoin="round"/>
<path d="M19.5196 10.2794L15.4057 9.0752L16.6486 10.9559L14.792 14.5746L17.2461 14.5428H20.8966L19.5196 10.2794Z" fill="#F5841F" stroke="#F5841F" stroke-width="0.712817" stroke-linecap="round" stroke-linejoin="round"/>
<path d="M6.64818 9.0752L2.53427 10.2794L1.16504 14.5428H4.81556L7.2619 14.5746L5.40525 10.9559L6.64818 9.0752Z" fill="#F5841F" stroke="#F5841F" stroke-width="0.712817" stroke-linecap="round" stroke-linejoin="round"/>
<path d="M12.2264 11.1509L12.4937 6.61156L13.6816 3.37793H8.37207L9.55998 6.61156L9.82732 11.1509L9.9296 12.5821L9.93735 16.1063H12.1164L12.1241 12.5821L12.2264 11.1509Z" fill="#F5841F" stroke="#F5841F" stroke-width="0.712817" stroke-linecap="round" stroke-linejoin="round"/>
</svg>
