<svg width="26" height="22" viewBox="0 0 26 22" fill="none" xmlns="http://www.w3.org/2000/svg">
<path fill-rule="evenodd" clip-rule="evenodd" d="M23.3068 0.150509C23.6265 0.0172413 23.9764 -0.0287218 24.3201 0.0174031C24.6638 0.0635279 24.9887 0.200055 25.2611 0.412773C25.5334 0.625492 25.7432 0.906625 25.8687 1.22691C25.9941 1.5472 26.0306 1.89493 25.9743 2.23391L23.0404 19.8608C22.7558 21.5611 20.8723 22.5362 19.2979 21.6893C17.981 20.9807 16.0251 19.889 14.2658 18.75C13.3861 18.1798 10.6916 16.3539 11.0227 15.0547C11.3073 13.9438 15.8349 9.76928 18.4222 7.28739C19.4377 6.31231 18.9745 5.74982 17.7754 6.64673C14.7975 8.87364 10.0163 12.2601 8.43549 13.2134C7.04098 14.054 6.31397 14.1975 5.44466 14.054C3.8587 13.7926 2.38786 13.3877 1.18739 12.8944C-0.434798 12.2281 -0.355888 10.0191 1.1861 9.37592L23.3068 0.150509Z" fill="white"/>
</svg>
