<svg width="20" height="20" viewBox="0 0 20 20" fill="none" xmlns="http://www.w3.org/2000/svg">
<path d="M1.97266 1.42283C2.00078 4.45977 2.19784 7.49871 2.18676 10.5343C2.17968 12.4763 2.04403 14.4091 2.04403 16.3509C2.04403 16.693 1.98059 17.0335 1.98059 17.3699C1.98059 17.7277 2.2247 17.6931 2.51189 17.7506C3.03342 17.8549 3.60522 17.7658 4.13753 17.8378C4.7756 17.9242 5.40987 18.2312 6.01692 18.4365C6.55462 18.6184 6.9431 18.675 7.48396 18.4722C8.13069 18.2297 8.72801 18.1713 9.40301 18.2502C10.4604 18.3737 11.5832 18.4663 12.6464 18.3731C13.8795 18.2649 15.1303 18.467 16.3655 18.4801C16.9357 18.4862 17.8256 18.628 18.348 18.3295C18.5573 18.2099 18.2351 16.6282 18.2132 16.3866C18.1349 15.5261 18.1828 14.6627 18.2766 13.8054C18.4371 12.3383 18.4006 10.892 18.2052 9.43207C17.9762 7.72035 17.9828 6.15333 18.1378 4.4481C18.2127 3.6247 17.9954 2.62321 18.2607 1.82726C18.346 1.5714 17.3581 1.64803 17.1902 1.63694C16.1961 1.57125 15.2211 1.64842 14.2284 1.5735C13.2848 1.50229 12.3198 1.524 11.3736 1.4942C10.5226 1.4674 9.62761 1.54007 8.78447 1.46248C7.90277 1.38134 7.17279 1.35523 6.3024 1.51799C5.696 1.63138 5.01854 1.4942 4.39922 1.4942C3.85093 1.4942 3.30897 1.56557 2.75772 1.56557" stroke="black" stroke-width="2" stroke-linecap="round"/>
</svg>
